<svg xmlns="http://www.w3.org/2000/svg" viewBox="0 0 104.5 10"><defs><style>.cls-1{fill:#00e0ff;}.cls-2{fill:#fff;}</style></defs><g id="Capa_1" data-name="Capa 1"><path class="cls-1" d="M0,5.62V4.36L4,2.5V3.75L1.25,5,4,6.25V7.5Z"/><path class="cls-1" d="M8,0,5.25,10H4L6.75,0Z"/><path class="cls-1" d="M21,7.5V6.25L23.75,5,21,3.75V2.5l4,1.86V5.62Z"/><polygon class="cls-2" points="14.25 2.25 13.75 2.25 12.5 2.25 12.25 2.25 11.88 2.5 11.5 2.25 11.25 2.25 10 2.25 8.75 2.25 8.75 2.25 8.75 7.75 10 7.75 10 3.5 11.25 3.5 11.25 6.75 12.5 6.75 12.5 3.5 13.75 3.5 13.75 7.75 15 7.75 15 3.5 15 3 14.25 2.25"/><path class="cls-2" d="M17.5,3.5h1.75L20,2.75v-.5H16.75L16,3V4.75l.75.75h1.77l.23.25v.5l-.25.25H16.75L16,7.25v.5h3.25L20,7V5.25l-.75-.75H17.5l-.25-.25v-.5Z"/><path class="cls-2" d="M43.75,3.29v-1h-3.5v1h1.09V6.6H40.25V7.75h3.5V6.6H42.66V3.29Z"/><path class="cls-2" d="M47.75,5l1.5-2.34V2.25H48.12L46.73,4.39h-1V2.25H44.5v5.5h1.26V5.5h1l1.5,2.25H49.5V7.38Z"/><path class="cls-2" d="M53.75,3.29v-1h-3.5v1h1.09V6.71H50.25v1h3.5v-1H52.66V3.29Z"/><path class="cls-2" d="M58.73,2.25V6.32h-.13L56.53,2.25h-2v5.5h1.26V3.68h.13L58,7.75h2V2.25Z"/><path class="cls-2" d="M65.25,4.5H63v1h1.5v.75l-.25.25H62.5L62,6V4l.5-.5H65l.5-.5V2.25H62L60.75,3.5V6.61l1.12,1.14h2.88l1-1V5Z"/><polygon class="cls-2" points="33.5 2.25 33 2.25 31.75 2.25 31.5 2.25 31.13 2.5 30.75 2.25 30.5 2.25 29.25 2.25 28 2.25 28 2.25 28 7.75 29.25 7.75 29.25 3.5 30.5 3.5 30.5 6.75 31.75 6.75 31.75 3.5 33 3.5 33 7.75 34.25 7.75 34.25 3.5 34.25 3 33.5 2.25"/><path class="cls-2" d="M39.5,5.5V3.25l-1-1H36l-1,1V6.5l1.25,1.25H39.5V7L39,6.51H37l-.75-.75V5.5ZM36.25,3.75l.5-.5h1l.51.51V4.5h-2Z"/><path class="cls-2" d="M74.38,5.5,72.5,2.75v-.5h1.25l1.25,2,1.25-2H77.5v.5L75.63,5.5V7.75H74.38Z"/><path class="cls-2" d="M88.25,2.25h4.5V3.5H89.5v.88H92V5.63H89.5V6.5h3.25V7.75h-4.5Z"/><path class="cls-2" d="M102,3.5h1.75l.75-.75v-.5h-3.25L100.5,3V4.75l.75.75H103l.23.25v.5L103,6.5h-1.75l-.75.75v.5h3.25L104.5,7V5.25l-.75-.75H102l-.25-.25v-.5Z"/><path class="cls-2" d="M69.25,3.5H71l.75-.75v-.5H68.5L67.75,3V4.75l.75.75h1.77l.23.25v.5l-.25.25H68.5l-.75.75v.5H71L71.75,7V5.25L71,4.5H69.25L69,4.25v-.5Z"/><path class="cls-2" d="M79.75,3.5H81.5l.75-.75v-.5H79L78.25,3V4.75L79,5.5h1.77l.23.25v.5l-.25.25H79l-.75.75v.5H81.5L82.25,7V5.25L81.5,4.5H79.75l-.25-.25v-.5Z"/><path class="cls-2" d="M83,2.25V3.49h1.63V7.75h1.25V3.49H87.5V2.25Z"/><polygon class="cls-2" points="99.75 3 99.75 7.75 98.5 7.75 98.5 3.5 97.25 3.5 97.25 6.75 96 6.75 96 3.5 94.75 3.5 94.75 7.75 93.5 7.75 93.5 2.25 96.25 2.25 96.63 2.5 97 2.25 99 2.25 99.75 3"/></g></svg>