<svg xmlns="http://www.w3.org/2000/svg" viewBox="0 0 76.5 18.5"><defs><style>.cls-1{fill:#00e0ff;}.cls-2{fill:#fff;}</style></defs><g id="Capa_1" data-name="Capa 1"><path class="cls-1" d="M25.75,5.62V4.36l4-1.86V3.75L27,5l2.75,1.26V7.5Z"/><path class="cls-1" d="M33.75,0,31,10H29.75L32.5,0Z"/><path class="cls-1" d="M46.75,7.5V6.25L49.5,5,46.75,3.75V2.5l4,1.86V5.62Z"/><polygon class="cls-2" points="40 2.25 39.5 2.25 38.25 2.25 38 2.25 37.63 2.5 37.25 2.25 37 2.25 35.75 2.25 34.5 2.25 34.5 2.25 34.5 7.75 35.75 7.75 35.75 3.5 37 3.5 37 6.75 38.25 6.75 38.25 3.5 39.5 3.5 39.5 7.75 40.75 7.75 40.75 3.5 40.75 3 40 2.25"/><path class="cls-2" d="M43.25,3.5H45l.75-.75v-.5H42.5L41.75,3V4.75l.75.75h1.77l.23.25v.5l-.25.25H42.5l-.75.75v.5H45L45.75,7V5.25L45,4.5H43.25L43,4.25v-.5Z"/><path class="cls-2" d="M15.75,14V13h-3.5v1h1.09v3.31H12.25V18.5h3.5V17.35H14.66V14Z"/><path class="cls-2" d="M19.75,15.75l1.5-2.34V13H20.12l-1.39,2.14h-1V13H16.5v5.5h1.26V16.25h1l1.5,2.25H21.5v-.37Z"/><path class="cls-2" d="M25.75,14V13h-3.5v1h1.09v3.42H22.25v1h3.5v-1H24.66V14Z"/><path class="cls-2" d="M30.73,13v4.07h-.13L28.53,13h-2v5.5h1.26V14.43h.13L30,18.5h2V13Z"/><path class="cls-2" d="M37.25,15.25H35v1h1.5V17l-.25.25H34.5l-.5-.5v-2l.5-.5H37l.5-.5V13H34l-1.25,1.25v3.11l1.12,1.14h2.88l1-1V15.75Z"/><polygon class="cls-2" points="5.5 13 5 13 3.75 13 3.5 13 3.13 13.25 2.75 13 2.5 13 1.25 13 0 13 0 13 0 18.5 1.25 18.5 1.25 14.25 2.5 14.25 2.5 17.5 3.75 17.5 3.75 14.25 5 14.25 5 18.5 6.25 18.5 6.25 14.25 6.25 13.75 5.5 13"/><path class="cls-2" d="M11.5,16.25V14l-1-1H8L7,14v3.25L8.25,18.5H11.5v-.75l-.5-.49H9l-.75-.75v-.25ZM8.25,14.5l.5-.5h1l.51.51v.74h-2Z"/><path class="cls-2" d="M46.38,16.25,44.5,13.5V13h1.25L47,15l1.25-2H49.5v.5l-1.87,2.75V18.5H46.38Z"/><path class="cls-2" d="M60.25,13h4.5v1.25H61.5v.88H64v1.25H61.5v.87h3.25V18.5h-4.5Z"/><path class="cls-2" d="M74,14.25h1.75l.75-.75V13H73.25l-.75.75V15.5l.75.75H75l.23.25V17l-.25.25H73.25L72.5,18v.5h3.25l.75-.75V16l-.75-.75H74L73.75,15v-.5Z"/><path class="cls-2" d="M41.25,14.25H43l.75-.75V13H40.5l-.75.75V15.5l.75.75h1.77l.23.25V17l-.25.25H40.5l-.75.75v.5H43l.75-.75V16L43,15.25H41.25L41,15v-.5Z"/><path class="cls-2" d="M51.75,14.25H53.5l.75-.75V13H51l-.75.75V15.5l.75.75h1.77l.23.25V17l-.25.25H51l-.75.75v.5H53.5l.75-.75V16l-.75-.75H51.75L51.5,15v-.5Z"/><path class="cls-2" d="M55,13v1.24h1.62V18.5h1.25V14.24H59.5V13Z"/><polygon class="cls-2" points="71.75 13.75 71.75 18.5 70.5 18.5 70.5 14.25 69.25 14.25 69.25 17.5 68 17.5 68 14.25 66.75 14.25 66.75 18.5 65.5 18.5 65.5 13 68.25 13 68.63 13.25 69 13 71 13 71.75 13.75"/></g></svg>