<svg id="Capa_1" data-name="Capa 1" xmlns="http://www.w3.org/2000/svg" viewBox="0 0 25 10"><defs><style>.cls-1{fill:#00e0ff;}.cls-2{fill:#0a192f;}</style></defs><path class="cls-1" d="M0,5.62V4.36L4,2.5V3.75L1.25,5,4,6.25V7.5Z"/><path class="cls-1" d="M8,0,5.25,10H4L6.75,0Z"/><path class="cls-1" d="M21,7.5V6.25L23.75,5,21,3.75V2.5l4,1.86V5.62Z"/><polygon class="cls-2" points="14.25 2.25 13.75 2.25 12.5 2.25 12.25 2.25 11.88 2.5 11.5 2.25 11.25 2.25 10 2.25 8.75 2.25 8.75 2.25 8.75 7.75 10 7.75 10 3.5 11.25 3.5 11.25 6.75 12.5 6.75 12.5 3.5 13.75 3.5 13.75 7.75 15 7.75 15 3.5 15 3 14.25 2.25"/><path class="cls-2" d="M17.5,3.5h1.75L20,2.75v-.5H16.75L16,3V4.75l.75.75h1.77l.23.25v.5l-.25.25H16.75L16,7.25v.5h3.25L20,7V5.25l-.75-.75H17.5l-.25-.25v-.5Z"/></svg>